<?xml version="1.0" encoding="utf-8"?>
<!-- Generator: Adobe Illustrator 17.0.0, SVG Export Plug-In . SVG Version: 6.00 Build 0)  -->
<!DOCTYPE svg PUBLIC "-//W3C//DTD SVG 1.1//EN" "http://www.w3.org/Graphics/SVG/1.1/DTD/svg11.dtd">
<svg version="1.1" id="Layer_1" xmlns="http://www.w3.org/2000/svg" xmlns:xlink="http://www.w3.org/1999/xlink" x="0px" y="0px"
	 width="116.787px" height="12px" viewBox="0 0 116.787 12" enable-background="new 0 0 116.787 12" xml:space="preserve">
<path fill="#040000" d="M102.474,1.628V0H89.746v1.628h5.373V12h1.958V1.628H102.474z M86.565,4.326h1.959V2.814
	c0-1.112-0.19-1.859-0.569-2.241C87.575,0.191,86.853,0,85.79,0h-6.58c-1.062,0-1.787,0.198-2.174,0.593
	c-0.387,0.395-0.581,1.143-0.581,2.244v6.325c0,1.101,0.194,1.849,0.581,2.245C77.423,11.802,78.148,12,79.21,12h6.58
	c1.062,0,1.784-0.193,2.164-0.582c0.379-0.388,0.569-1.139,0.569-2.256V7.325h-1.959v3h-8.151V1.605h8.151V4.326z M74.265,12v-1.651
	h-9.449V6.535h5.715V4.954h-5.715V1.605h9.359V0H62.858v12H74.265z M48.738,12V4.93c0-1.039-0.045-1.914-0.137-2.628
	c0.167,0.295,0.372,0.566,0.615,0.814c0.045,0.046,0.235,0.225,0.569,0.535L58.825,12h1.093V0h-1.822v6.582
	c0,1.225,0.061,2.209,0.184,2.954c-0.471-0.62-0.919-1.124-1.343-1.512L48.146,0h-1.23v12H48.738z M32.797,12V4.93
	c0-1.039-0.046-1.914-0.137-2.628c0.167,0.295,0.372,0.566,0.615,0.814c0.045,0.046,0.235,0.225,0.569,0.535L42.884,12h1.093V0
	h-1.822v6.582c0,1.225,0.062,2.209,0.184,2.954c-0.47-0.62-0.919-1.124-1.343-1.512L32.206,0h-1.23v12H32.797z M16.44,1.605h9.722
	v8.721H16.44V1.605z M14.482,9.163c0,1.101,0.193,1.849,0.581,2.245C15.45,11.802,16.177,12,17.241,12h8.143
	c1.064,0,1.786-0.198,2.167-0.593c0.38-0.396,0.57-1.143,0.57-2.245V2.837c0-1.101-0.19-1.849-0.57-2.244
	C27.17,0.198,26.448,0,25.384,0h-8.143c-1.064,0-1.791,0.198-2.178,0.593c-0.388,0.395-0.581,1.143-0.581,2.244V9.163z M10.11,4.326
	l1.958,0.004V2.814c0-1.112-0.19-1.859-0.569-2.241C11.119,0.191,10.398,0,9.336,0h-6.58C1.692,0,0.968,0.198,0.581,0.593
	C0.193,0.988,0,1.736,0,2.837v6.325c0,1.101,0.193,1.849,0.581,2.245C0.968,11.802,1.692,12,2.755,12h6.58
	c1.062,0,1.783-0.193,2.163-0.582c0.38-0.388,0.569-1.139,0.569-2.256V7.325H10.11v3H1.958V1.605h8.152V4.326z"/>
<path fill="#D3132A" d="M117,4.761c0,0,0-0.219-0.213-0.219h-3.332c0,0-0.213,0-0.213-0.218V0.993c0,0,0-0.219-0.212-0.219h-2.615
	c0,0-0.212,0-0.212,0.219v3.331c0,0,0,0.218-0.213,0.218h-3.272c0,0-0.213,0-0.213,0.219v2.661c0,0,0,0.218,0.213,0.218h3.272
	c0,0,0.213,0,0.213,0.219v3.331c0,0,0,0.218,0.212,0.218h2.615c0,0,0.212,0,0.212-0.218V7.86c0,0,0-0.219,0.213-0.219h3.332
	c0,0,0.213,0,0.213-0.218V4.761z"/>
</svg>
