<?xml version="1.0" encoding="utf-8"?>
<!-- Generator: Adobe Illustrator 17.0.0, SVG Export Plug-In . SVG Version: 6.00 Build 0)  -->
<!DOCTYPE svg PUBLIC "-//W3C//DTD SVG 1.1//EN" "http://www.w3.org/Graphics/SVG/1.1/DTD/svg11.dtd">
<svg version="1.1" id="Layer_1" xmlns="http://www.w3.org/2000/svg" xmlns:xlink="http://www.w3.org/1999/xlink" x="0px" y="0px"
	 width="145px" height="14px" viewBox="0 0 145 14" enable-background="new 0 0 145 14" xml:space="preserve">
<path fill="#040000" d="M126.997,1.9V0h-15.774v1.9h6.659V14h2.427V1.9H126.997z M107.281,5.047h2.427V3.283
	c0-1.297-0.236-2.169-0.706-2.614C108.533,0.223,107.638,0,106.322,0h-8.155c-1.317,0-2.215,0.231-2.695,0.692
	c-0.479,0.461-0.72,1.334-0.72,2.618v7.379c0,1.285,0.24,2.157,0.72,2.619C95.952,13.769,96.85,14,98.167,14h8.155
	c1.317,0,2.211-0.226,2.681-0.678c0.47-0.452,0.706-1.329,0.706-2.632V8.546h-2.427v3.5H97.179V1.872h10.102V5.047z M92.038,14
	v-1.927h-11.71v-4.45h7.083V5.779h-7.083V1.872h11.598V0H77.9v14H92.038z M60.402,14V5.752c0-1.212-0.056-2.234-0.169-3.066
	c0.207,0.344,0.461,0.66,0.762,0.95C61.051,3.69,61.286,3.898,61.7,4.26L72.903,14h1.354V0H72v7.678
	c0,1.429,0.076,2.577,0.228,3.446c-0.583-0.723-1.138-1.311-1.665-1.764L59.668,0h-1.524v14H60.402z M40.646,14V5.752
	c0-1.212-0.057-2.234-0.169-3.066c0.207,0.344,0.461,0.66,0.762,0.95c0.056,0.054,0.291,0.262,0.706,0.624L53.147,14h1.354V0h-2.257
	v7.678c0,1.429,0.076,2.577,0.228,3.446c-0.583-0.723-1.138-1.311-1.665-1.764L39.913,0h-1.524v14H40.646z M20.374,1.872h12.049
	v10.175H20.374V1.872z M17.947,10.69c0,1.285,0.24,2.157,0.721,2.619c0.48,0.461,1.38,0.691,2.699,0.691h10.091
	c1.319,0,2.214-0.231,2.685-0.691c0.47-0.462,0.706-1.334,0.706-2.619V3.31c0-1.284-0.236-2.157-0.706-2.618
	C33.672,0.231,32.777,0,31.458,0H21.367c-1.319,0-2.219,0.231-2.699,0.692c-0.481,0.461-0.721,1.334-0.721,2.618V10.69z
	 M12.529,5.047l2.427,0.004V3.283c0-1.297-0.235-2.169-0.706-2.614C13.78,0.223,12.886,0,11.57,0H3.415
	C2.097,0,1.199,0.231,0.72,0.692C0.24,1.153,0,2.026,0,3.31v7.379c0,1.285,0.24,2.157,0.72,2.619C1.199,13.769,2.097,14,3.415,14
	h8.155c1.317,0,2.21-0.226,2.681-0.678c0.47-0.452,0.706-1.329,0.706-2.632V8.546h-2.427v3.5H2.427V1.872h10.102V5.047z"/>
<path fill="#D3132A" d="M145,5.554c0,0,0-0.255-0.264-0.255h-4.13c0,0-0.264,0-0.264-0.255V1.158c0,0,0-0.255-0.263-0.255h-3.241
	c0,0-0.263,0-0.263,0.255v3.886c0,0,0,0.255-0.264,0.255h-4.055c0,0-0.264,0-0.264,0.255v3.105c0,0,0,0.255,0.264,0.255h4.055
	c0,0,0.264,0,0.264,0.255v3.886c0,0,0,0.255,0.263,0.255h3.241c0,0,0.263,0,0.263-0.255V9.17c0,0,0-0.255,0.264-0.255h4.13
	c0,0,0.264,0,0.264-0.255V5.554z"/>
</svg>
