<?xml version="1.0" encoding="utf-8"?>
<!-- Generator: Adobe Illustrator 17.0.0, SVG Export Plug-In . SVG Version: 6.00 Build 0)  -->
<!DOCTYPE svg PUBLIC "-//W3C//DTD SVG 1.1//EN" "http://www.w3.org/Graphics/SVG/1.1/DTD/svg11.dtd">
<svg version="1.1" id="Layer_1" xmlns="http://www.w3.org/2000/svg" xmlns:xlink="http://www.w3.org/1999/xlink" x="0px" y="0px"
	 width="233px" height="23px" viewBox="0 0 233 23" enable-background="new 0 0 233 23" xml:space="preserve">
<path fill="#040000" d="M204.072,3.121V0h-25.347v3.121h10.701V23h3.899V3.121H204.072z M172.389,8.291h3.901V5.394
	c0-2.131-0.379-3.563-1.134-4.295C174.401,0.366,172.964,0,170.848,0h-13.104c-2.116,0-3.559,0.379-4.33,1.137
	c-0.77,0.757-1.157,2.191-1.157,4.301v12.123c0,2.111,0.386,3.544,1.157,4.302c0.771,0.757,2.214,1.136,4.33,1.136h13.104
	c2.116,0,3.553-0.371,4.309-1.115c0.755-0.743,1.134-2.184,1.134-4.324V14.04h-3.901v5.751h-16.232V3.075h16.232V8.291z M147.895,23
	v-3.165h-18.818v-7.31h11.382v-3.03h-11.382V3.075h18.637V0h-22.537v23H147.895z M97.059,23V9.45c0-1.991-0.09-3.669-0.272-5.037
	c0.332,0.565,0.74,1.085,1.225,1.561c0.09,0.088,0.468,0.43,1.133,1.025L117.148,23h2.176V0h-3.627v12.615
	c0,2.347,0.122,4.234,0.367,5.661c-0.938-1.189-1.829-2.154-2.675-2.898L95.881,0h-2.449v23H97.059z M65.314,23V9.45
	c0-1.991-0.091-3.669-0.272-5.037c0.332,0.565,0.74,1.085,1.224,1.561c0.09,0.088,0.468,0.43,1.134,1.025L85.402,23h2.176V0H83.95
	v12.615c0,2.347,0.123,4.234,0.367,5.661c-0.936-1.189-1.829-2.154-2.675-2.898L64.136,0h-2.449v23H65.314z M32.739,3.075h19.361
	v16.716H32.739V3.075z M28.84,17.562c0,2.111,0.385,3.544,1.158,4.302C30.769,22.621,32.215,23,34.335,23H50.55
	c2.119,0,3.558-0.379,4.315-1.136C55.621,21.106,56,19.673,56,17.562V5.438c0-2.11-0.379-3.544-1.135-4.301
	C54.108,0.379,52.67,0,50.55,0H34.335c-2.119,0-3.566,0.379-4.338,1.137c-0.773,0.757-1.158,2.191-1.158,4.301V17.562z
	 M20.133,8.291l3.899,0.007V5.394c0-2.131-0.378-3.563-1.134-4.295C22.143,0.366,20.707,0,18.591,0H5.487
	c-2.117,0-3.56,0.379-4.33,1.137C0.385,1.894,0,3.328,0,5.438v12.123c0,2.111,0.385,3.544,1.157,4.302
	C1.927,22.621,3.37,23,5.487,23h13.104c2.116,0,3.552-0.371,4.307-1.115c0.756-0.743,1.134-2.184,1.134-4.324V14.04h-3.899v5.751
	H3.9V3.075h16.234V8.291z"/>
<path fill="#D3132A" d="M233,9.125c0,0,0-0.419-0.424-0.419h-6.636c0,0-0.424,0-0.424-0.419V1.903c0,0,0-0.42-0.422-0.42h-5.208
	c0,0-0.422,0-0.422,0.42v6.385c0,0,0,0.419-0.424,0.419h-6.516c0,0-0.424,0-0.424,0.419v5.101c0,0,0,0.419,0.424,0.419h6.516
	c0,0,0.424,0,0.424,0.42v6.385c0,0,0,0.419,0.422,0.419h5.208c0,0,0.422,0,0.422-0.419v-6.385c0,0,0-0.42,0.424-0.42h6.636
	c0,0,0.424,0,0.424-0.419V9.125z"/>
</svg>
